<svg width="26" height="23" viewBox="0 0 26 23" fill="none" xmlns="http://www.w3.org/2000/svg">
<g clip-path="url(#clip0_154_2)">
<path d="M23.1562 16.8667H22.3438V16.1613C22.726 15.854 23.0329 15.4721 23.2433 15.0419C23.4538 14.6117 23.5627 14.1435 23.5625 13.6697V13.2327C23.5616 12.5701 23.2823 11.9348 22.7857 11.4663C22.2892 10.9977 21.616 10.7341 20.9137 10.7333H20.5238C19.8215 10.7341 19.1483 10.9977 18.6518 11.4663C18.1552 11.9348 17.8759 12.5701 17.875 13.2327V13.6689C17.8748 14.1427 17.9837 14.6109 18.1942 15.0411C18.4046 15.4713 18.7115 15.8533 19.0938 16.1606V16.8667H17.9961C17.7662 16.4094 17.404 16.0229 16.9513 15.7515C16.4986 15.4802 15.9738 15.3353 15.4375 15.3333H14.625V14.628C15.0072 14.3207 15.3141 13.9388 15.5246 13.5085C15.735 13.0783 15.8439 12.6101 15.8438 12.1363V11.6993C15.8429 11.0367 15.5635 10.4015 15.067 9.93293C14.5704 9.46439 13.8972 9.20081 13.195 9.2H12.805C12.1028 9.20081 11.4296 9.46439 10.933 9.93293C10.4365 10.4015 10.1571 11.0367 10.1562 11.6993V12.1356C10.156 12.6095 10.2648 13.0779 10.4753 13.5082C10.6857 13.9385 10.9927 14.3206 11.375 14.628V15.3333H10.5625C10.0262 15.3353 9.5014 15.4802 9.04868 15.7515C8.59596 16.0229 8.23378 16.4094 8.00394 16.8667H6.90625V16.1613C7.28847 15.854 7.5954 15.4721 7.80583 15.0419C8.01625 14.6117 8.12515 14.1435 8.125 13.6697V13.2327C8.12414 12.5701 7.8448 11.9348 7.34825 11.4663C6.8517 10.9977 6.17848 10.7341 5.47625 10.7333H5.08625C4.38402 10.7341 3.7108 10.9977 3.21425 11.4663C2.7177 11.9348 2.43836 12.5701 2.4375 13.2327V13.6689C2.43735 14.1427 2.54625 14.6109 2.75667 15.0411C2.9671 15.4713 3.27403 15.8533 3.65625 16.1606V16.8667H2.84375C2.08954 16.8667 1.36622 17.1494 0.832915 17.6526C0.299608 18.1558 0 18.8383 0 19.55V21.85C0 22.155 0.128404 22.4475 0.356964 22.6632C0.585524 22.8788 0.895517 23 1.21875 23H24.7812C25.1045 23 25.4145 22.8788 25.643 22.6632C25.8716 22.4475 26 22.155 26 21.85V19.55C26 18.8383 25.7004 18.1558 25.1671 17.6526C24.6338 17.1494 23.9105 16.8667 23.1562 16.8667ZM3.25 13.6697V13.2327C3.25064 12.7733 3.44431 12.333 3.78854 12.0082C4.13276 11.6834 4.59944 11.5006 5.08625 11.5H5.47625C5.96306 11.5006 6.42974 11.6834 6.77396 12.0082C7.11819 12.333 7.31186 12.7733 7.3125 13.2327V13.6689C7.31292 14.1612 7.15984 14.6426 6.87233 15.0534C6.58482 15.4641 6.1756 15.786 5.69563 15.9789C5.56462 16.0316 5.42367 16.0588 5.28125 16.0588C5.13883 16.0588 4.99788 16.0316 4.86688 15.9789C4.38703 15.786 3.97789 15.4643 3.6904 15.0537C3.4029 14.6431 3.24974 14.1618 3.25 13.6697ZM6.09375 16.6466V16.8667C6.09375 17.07 6.00815 17.265 5.85577 17.4088C5.7034 17.5526 5.49674 17.6333 5.28125 17.6333C5.06576 17.6333 4.8591 17.5526 4.70673 17.4088C4.55435 17.265 4.46875 17.07 4.46875 16.8667V16.6459C4.49638 16.6574 4.52075 16.6735 4.55 16.685C4.78143 16.7771 5.03007 16.8246 5.28125 16.8246C5.53243 16.8246 5.78108 16.7771 6.0125 16.685C6.04175 16.6735 6.06612 16.6589 6.09375 16.6466ZM3.65625 22.2333V19.55C3.65625 19.4483 3.61345 19.3508 3.53726 19.2789C3.46108 19.2071 3.35774 19.1667 3.25 19.1667C3.14226 19.1667 3.03892 19.2071 2.96274 19.2789C2.88655 19.3508 2.84375 19.4483 2.84375 19.55V22.2333H1.21875C1.11101 22.2333 1.00767 22.1929 0.931488 22.1211C0.855301 22.0492 0.8125 21.9517 0.8125 21.85V19.55C0.8125 19.0417 1.02651 18.5542 1.40744 18.1947C1.78837 17.8353 2.30503 17.6333 2.84375 17.6333H3.88212C4.02285 17.8663 4.22641 18.06 4.47215 18.1948C4.71789 18.3295 4.99704 18.4005 5.28125 18.4005C5.56546 18.4005 5.84461 18.3295 6.09035 18.1948C6.33609 18.06 6.53965 17.8663 6.68038 17.6333H7.76019C7.73653 17.76 7.72268 17.8881 7.71875 18.0167V21.85C7.7201 21.9809 7.74538 22.1106 7.7935 22.2333H3.65625ZM10.9688 12.1363V11.6993C10.9694 11.24 11.1631 10.7996 11.5073 10.4748C11.8515 10.15 12.3182 9.96727 12.805 9.96667H13.1942C13.681 9.96727 14.1477 10.15 14.4919 10.4748C14.8361 10.7996 15.0298 11.24 15.0304 11.6993V12.1356C15.0309 12.6278 14.8778 13.1093 14.5903 13.5201C14.3028 13.9308 13.8935 14.2527 13.4136 14.4455C13.2826 14.4983 13.1416 14.5254 12.9992 14.5254C12.8568 14.5254 12.7158 14.4983 12.5848 14.4455C12.1051 14.2526 11.6962 13.9308 11.4088 13.5202C11.1215 13.1096 10.9684 12.6284 10.9688 12.1363ZM13.8125 15.1125V15.3333C13.8125 15.5367 13.7269 15.7317 13.5745 15.8754C13.4222 16.0192 13.2155 16.1 13 16.1C12.7845 16.1 12.5778 16.0192 12.4255 15.8754C12.2731 15.7317 12.1875 15.5367 12.1875 15.3333V15.1125C12.2151 15.124 12.2395 15.1401 12.2688 15.1516C12.5002 15.2438 12.7488 15.2913 13 15.2913C13.2512 15.2913 13.4998 15.2438 13.7313 15.1516C13.7605 15.1401 13.7849 15.1248 13.8125 15.1125ZM17.4688 21.85C17.4688 21.9517 17.4259 22.0492 17.3498 22.1211C17.2736 22.1929 17.1702 22.2333 17.0625 22.2333H15.8438V19.55C15.8438 19.4483 15.801 19.3508 15.7248 19.2789C15.6486 19.2071 15.5452 19.1667 15.4375 19.1667C15.3298 19.1667 15.2264 19.2071 15.1502 19.2789C15.0741 19.3508 15.0312 19.4483 15.0312 19.55V22.2333H10.9688V19.55C10.9688 19.4483 10.926 19.3508 10.8498 19.2789C10.7736 19.2071 10.6702 19.1667 10.5625 19.1667C10.4548 19.1667 10.3514 19.2071 10.2752 19.2789C10.1991 19.3508 10.1562 19.4483 10.1562 19.55V22.2333H8.9375C8.82976 22.2333 8.72642 22.1929 8.65024 22.1211C8.57405 22.0492 8.53125 21.9517 8.53125 21.85V18.0167C8.53125 17.5083 8.74526 17.0208 9.12619 16.6614C9.50712 16.3019 10.0238 16.1 10.5625 16.1H11.6009C11.7416 16.333 11.9452 16.5267 12.1909 16.6614C12.4366 16.7962 12.7158 16.8672 13 16.8672C13.2842 16.8672 13.5634 16.7962 13.8091 16.6614C14.0548 16.5267 14.2584 16.333 14.3991 16.1H15.4375C15.9762 16.1 16.4929 16.3019 16.8738 16.6614C17.2547 17.0208 17.4688 17.5083 17.4688 18.0167V21.85ZM18.6875 13.6697V13.2327C18.6881 12.7733 18.8818 12.333 19.226 12.0082C19.5703 11.6834 20.0369 11.5006 20.5238 11.5H20.9129C21.3999 11.5004 21.8668 11.6831 22.2112 12.0079C22.5556 12.3327 22.7494 12.7732 22.75 13.2327V13.6689C22.7504 14.1612 22.5973 14.6426 22.3098 15.0534C22.0223 15.4641 21.6131 15.786 21.1331 15.9789C21.0021 16.0316 20.8612 16.0588 20.7188 16.0588C20.5763 16.0588 20.4354 16.0316 20.3044 15.9789C19.8245 15.786 19.4154 15.4643 19.1279 15.0537C18.8404 14.6431 18.6872 14.1618 18.6875 13.6697ZM21.5312 16.6466V16.8667C21.5312 17.07 21.4457 17.265 21.2933 17.4088C21.1409 17.5526 20.9342 17.6333 20.7188 17.6333C20.5033 17.6333 20.2966 17.5526 20.1442 17.4088C19.9919 17.265 19.9062 17.07 19.9062 16.8667V16.6459C19.9339 16.6574 19.9583 16.6735 19.9875 16.685C20.2189 16.7771 20.4676 16.8246 20.7188 16.8246C20.9699 16.8246 21.2186 16.7771 21.45 16.685C21.4792 16.6735 21.5036 16.6589 21.5312 16.6466ZM25.1875 21.85C25.1875 21.9517 25.1447 22.0492 25.0685 22.1211C24.9923 22.1929 24.889 22.2333 24.7812 22.2333H23.1562V19.55C23.1562 19.4483 23.1134 19.3508 23.0373 19.2789C22.9611 19.2071 22.8577 19.1667 22.75 19.1667C22.6423 19.1667 22.5389 19.2071 22.4627 19.2789C22.3866 19.3508 22.3438 19.4483 22.3438 19.55V22.2333H18.2065C18.2546 22.1106 18.2799 21.9809 18.2812 21.85V18.0167C18.2773 17.8881 18.2635 17.76 18.2398 17.6333H19.3196C19.4603 17.8663 19.6639 18.06 19.9097 18.1948C20.1554 18.3295 20.4345 18.4005 20.7188 18.4005C21.003 18.4005 21.2821 18.3295 21.5279 18.1948C21.7736 18.06 21.9772 17.8663 22.1179 17.6333H23.1562C23.695 17.6333 24.2116 17.8353 24.5926 18.1947C24.9735 18.5542 25.1875 19.0417 25.1875 19.55V21.85ZM21.125 7.66667H20.3125C20.097 7.66667 19.8903 7.58589 19.738 7.44211C19.5856 7.29834 19.5 7.10333 19.5 6.9C19.5 6.79833 19.4572 6.70083 19.381 6.62894C19.3048 6.55705 19.2015 6.51667 19.0938 6.51667C18.986 6.51667 18.8827 6.55705 18.8065 6.62894C18.7303 6.70083 18.6875 6.79833 18.6875 6.9C18.6875 7.30667 18.8587 7.69667 19.1635 7.98423C19.4682 8.27179 19.8815 8.43333 20.3125 8.43333V8.81667C20.3125 8.91833 20.3553 9.01584 20.4315 9.08772C20.5077 9.15961 20.611 9.2 20.7188 9.2C20.8265 9.2 20.9298 9.15961 21.006 9.08772C21.0822 9.01584 21.125 8.91833 21.125 8.81667V8.43333C21.556 8.43333 21.9693 8.27179 22.274 7.98423C22.5788 7.69667 22.75 7.30667 22.75 6.9C22.75 6.49333 22.5788 6.10333 22.274 5.81577C21.9693 5.52821 21.556 5.36667 21.125 5.36667H20.3125C20.097 5.36667 19.8903 5.28589 19.738 5.14212C19.5856 4.99834 19.5 4.80333 19.5 4.6C19.5 4.39667 19.5856 4.20166 19.738 4.05789C19.8903 3.91411 20.097 3.83333 20.3125 3.83333H21.125C21.3405 3.83333 21.5472 3.91411 21.6995 4.05789C21.8519 4.20166 21.9375 4.39667 21.9375 4.6C21.9375 4.70167 21.9803 4.79917 22.0565 4.87106C22.1327 4.94295 22.236 4.98333 22.3438 4.98333C22.4515 4.98333 22.5548 4.94295 22.631 4.87106C22.7072 4.79917 22.75 4.70167 22.75 4.6C22.75 4.19334 22.5788 3.80333 22.274 3.51577C21.9693 3.22821 21.556 3.06667 21.125 3.06667V2.68333C21.125 2.58167 21.0822 2.48416 21.006 2.41228C20.9298 2.34039 20.8265 2.3 20.7188 2.3C20.611 2.3 20.5077 2.34039 20.4315 2.41228C20.3553 2.48416 20.3125 2.58167 20.3125 2.68333V3.06667C19.8815 3.06667 19.4682 3.22821 19.1635 3.51577C18.8587 3.80333 18.6875 4.19334 18.6875 4.6C18.6875 5.00667 18.8587 5.39667 19.1635 5.68423C19.4682 5.97179 19.8815 6.13333 20.3125 6.13333H21.125C21.3405 6.13333 21.5472 6.21411 21.6995 6.35788C21.8519 6.50166 21.9375 6.69667 21.9375 6.9C21.9375 7.10333 21.8519 7.29834 21.6995 7.44211C21.5472 7.58589 21.3405 7.66667 21.125 7.66667ZM13.4062 5.36667H12.5938C12.3783 5.36667 12.1716 5.28589 12.0192 5.14212C11.8669 4.99834 11.7812 4.80333 11.7812 4.6C11.7812 4.49833 11.7385 4.40083 11.6623 4.32894C11.5861 4.25705 11.4827 4.21667 11.375 4.21667C11.2673 4.21667 11.1639 4.25705 11.0877 4.32894C11.0116 4.40083 10.9688 4.49833 10.9688 4.6C10.9688 5.00667 11.14 5.39667 11.4447 5.68423C11.7494 5.97179 12.1628 6.13333 12.5938 6.13333V6.51667C12.5938 6.61833 12.6366 6.71584 12.7127 6.78772C12.7889 6.85961 12.8923 6.9 13 6.9C13.1077 6.9 13.2111 6.85961 13.2873 6.78772C13.3635 6.71584 13.4062 6.61833 13.4062 6.51667V6.13333C13.8372 6.13333 14.2506 5.97179 14.5553 5.68423C14.86 5.39667 15.0312 5.00667 15.0312 4.6C15.0312 4.19334 14.86 3.80333 14.5553 3.51577C14.2506 3.22821 13.8372 3.06667 13.4062 3.06667H12.5938C12.3783 3.06667 12.1716 2.98589 12.0192 2.84211C11.8669 2.69834 11.7812 2.50333 11.7812 2.3C11.7812 2.09667 11.8669 1.90166 12.0192 1.75788C12.1716 1.61411 12.3783 1.53333 12.5938 1.53333H13.4062C13.6217 1.53333 13.8284 1.61411 13.9808 1.75788C14.1331 1.90166 14.2188 2.09667 14.2188 2.3C14.2188 2.40167 14.2616 2.49917 14.3377 2.57106C14.4139 2.64295 14.5173 2.68333 14.625 2.68333C14.7327 2.68333 14.8361 2.64295 14.9123 2.57106C14.9885 2.49917 15.0312 2.40167 15.0312 2.3C15.0312 1.89333 14.86 1.50333 14.5553 1.21577C14.2506 0.928214 13.8372 0.766667 13.4062 0.766667V0.383333C13.4062 0.281667 13.3635 0.184165 13.2873 0.112276C13.2111 0.0403869 13.1077 0 13 0C12.8923 0 12.7889 0.0403869 12.7127 0.112276C12.6366 0.184165 12.5938 0.281667 12.5938 0.383333V0.766667C12.1628 0.766667 11.7494 0.928214 11.4447 1.21577C11.14 1.50333 10.9688 1.89333 10.9688 2.3C10.9688 2.70667 11.14 3.09667 11.4447 3.38423C11.7494 3.67179 12.1628 3.83333 12.5938 3.83333H13.4062C13.6217 3.83333 13.8284 3.91411 13.9808 4.05789C14.1331 4.20166 14.2188 4.39667 14.2188 4.6C14.2188 4.80333 14.1331 4.99834 13.9808 5.14212C13.8284 5.28589 13.6217 5.36667 13.4062 5.36667ZM5.6875 7.66667H4.875C4.65951 7.66667 4.45285 7.58589 4.30048 7.44211C4.1481 7.29834 4.0625 7.10333 4.0625 6.9C4.0625 6.79833 4.0197 6.70083 3.94351 6.62894C3.86733 6.55705 3.76399 6.51667 3.65625 6.51667C3.54851 6.51667 3.44517 6.55705 3.36899 6.62894C3.2928 6.70083 3.25 6.79833 3.25 6.9C3.25 7.30667 3.42121 7.69667 3.72595 7.98423C4.0307 8.27179 4.44402 8.43333 4.875 8.43333V8.81667C4.875 8.91833 4.9178 9.01584 4.99399 9.08772C5.07017 9.15961 5.17351 9.2 5.28125 9.2C5.38899 9.2 5.49233 9.15961 5.56851 9.08772C5.6447 9.01584 5.6875 8.91833 5.6875 8.81667V8.43333C6.11848 8.43333 6.5318 8.27179 6.83655 7.98423C7.1413 7.69667 7.3125 7.30667 7.3125 6.9C7.3125 6.49333 7.1413 6.10333 6.83655 5.81577C6.5318 5.52821 6.11848 5.36667 5.6875 5.36667H4.875C4.65951 5.36667 4.45285 5.28589 4.30048 5.14212C4.1481 4.99834 4.0625 4.80333 4.0625 4.6C4.0625 4.39667 4.1481 4.20166 4.30048 4.05789C4.45285 3.91411 4.65951 3.83333 4.875 3.83333H5.6875C5.90299 3.83333 6.10965 3.91411 6.26202 4.05789C6.4144 4.20166 6.5 4.39667 6.5 4.6C6.5 4.70167 6.5428 4.79917 6.61899 4.87106C6.69517 4.94295 6.79851 4.98333 6.90625 4.98333C7.01399 4.98333 7.11733 4.94295 7.19351 4.87106C7.2697 4.79917 7.3125 4.70167 7.3125 4.6C7.3125 4.19334 7.1413 3.80333 6.83655 3.51577C6.5318 3.22821 6.11848 3.06667 5.6875 3.06667V2.68333C5.6875 2.58167 5.6447 2.48416 5.56851 2.41228C5.49233 2.34039 5.38899 2.3 5.28125 2.3C5.17351 2.3 5.07017 2.34039 4.99399 2.41228C4.9178 2.48416 4.875 2.58167 4.875 2.68333V3.06667C4.44402 3.06667 4.0307 3.22821 3.72595 3.51577C3.42121 3.80333 3.25 4.19334 3.25 4.6C3.25 5.00667 3.42121 5.39667 3.72595 5.68423C4.0307 5.97179 4.44402 6.13333 4.875 6.13333H5.6875C5.90299 6.13333 6.10965 6.21411 6.26202 6.35788C6.4144 6.50166 6.5 6.69667 6.5 6.9C6.5 7.10333 6.4144 7.29834 6.26202 7.44211C6.10965 7.58589 5.90299 7.66667 5.6875 7.66667Z" fill="#EE2737"/>
</g>
<defs>
<clipPath id="clip0_154_2">
<rect width="26" height="23" fill="white"/>
</clipPath>
</defs>
</svg>
