<svg width="26" height="26" viewBox="0 0 26 26" fill="none" xmlns="http://www.w3.org/2000/svg">
<g clip-path="url(#clip0_154_4)">
<path d="M13.8125 7.31715H13C12.7845 7.31715 12.5778 7.23149 12.4255 7.07902C12.2731 6.92655 12.1875 6.71976 12.1875 6.50413C12.1875 6.39632 12.1447 6.29292 12.0685 6.21669C11.9923 6.14045 11.889 6.09763 11.7812 6.09763C11.6735 6.09763 11.5702 6.14045 11.494 6.21669C11.4178 6.29292 11.375 6.39632 11.375 6.50413C11.375 6.93538 11.5462 7.34897 11.851 7.65391C12.1557 7.95885 12.569 8.13017 13 8.13017V8.53667C13 8.64449 13.0428 8.74788 13.119 8.82412C13.1952 8.90036 13.2985 8.94318 13.4062 8.94318C13.514 8.94318 13.6173 8.90036 13.6935 8.82412C13.7697 8.74788 13.8125 8.64449 13.8125 8.53667V8.13017C14.2435 8.13017 14.6568 7.95885 14.9615 7.65391C15.2663 7.34897 15.4375 6.93538 15.4375 6.50413C15.4375 6.07288 15.2663 5.65929 14.9615 5.35435C14.6568 5.04941 14.2435 4.8781 13.8125 4.8781H13C12.7845 4.8781 12.5778 4.79244 12.4255 4.63997C12.2731 4.4875 12.1875 4.28071 12.1875 4.06508C12.1875 3.84946 12.2731 3.64267 12.4255 3.4902C12.5778 3.33772 12.7845 3.25207 13 3.25207H13.8125C14.028 3.25207 14.2347 3.33772 14.387 3.4902C14.5394 3.64267 14.625 3.84946 14.625 4.06508C14.625 4.1729 14.6678 4.27629 14.744 4.35253C14.8202 4.42876 14.9235 4.47159 15.0312 4.47159C15.139 4.47159 15.2423 4.42876 15.3185 4.35253C15.3947 4.27629 15.4375 4.1729 15.4375 4.06508C15.4375 3.63383 15.2663 3.22025 14.9615 2.91531C14.6568 2.61037 14.2435 2.43905 13.8125 2.43905V2.03254C13.8125 1.92473 13.7697 1.82133 13.6935 1.7451C13.6173 1.66886 13.514 1.62604 13.4062 1.62604C13.2985 1.62604 13.1952 1.66886 13.119 1.7451C13.0428 1.82133 13 1.92473 13 2.03254V2.43905C12.569 2.43905 12.1557 2.61037 11.851 2.91531C11.5462 3.22025 11.375 3.63383 11.375 4.06508C11.375 4.49634 11.5462 4.90992 11.851 5.21486C12.1557 5.5198 12.569 5.69112 13 5.69112H13.8125C14.028 5.69112 14.2347 5.77677 14.387 5.92924C14.5394 6.08171 14.625 6.28851 14.625 6.50413C14.625 6.71976 14.5394 6.92655 14.387 7.07902C14.2347 7.23149 14.028 7.31715 13.8125 7.31715ZM13.4062 10.5692C14.4508 10.5692 15.4719 10.2593 16.3404 9.6786C17.2089 9.09792 17.8858 8.27258 18.2855 7.30694C18.6852 6.3413 18.7898 5.27875 18.586 4.25363C18.3822 3.22852 17.8793 2.28689 17.1407 1.54783C16.4021 0.808762 15.461 0.305452 14.4366 0.101545C13.4121 -0.102363 12.3502 0.00228959 11.3852 0.402269C10.4202 0.802248 9.59536 1.47959 9.01505 2.34864C8.43474 3.21769 8.125 4.23941 8.125 5.28461C8.12672 6.68565 8.68369 8.02881 9.67374 9.01949C10.6638 10.0102 12.0061 10.5675 13.4062 10.5692ZM13.4062 0.813019C14.2901 0.813019 15.1541 1.07527 15.889 1.56662C16.6238 2.05796 17.1966 2.75633 17.5348 3.57341C17.8731 4.39048 17.9616 5.28957 17.7891 6.15697C17.6167 7.02438 17.1911 7.82114 16.5661 8.4465C15.9412 9.07186 15.1449 9.49774 14.2781 9.67028C13.4112 9.84282 12.5127 9.75426 11.6961 9.41582C10.8796 9.07738 10.1817 8.50424 9.69062 7.76889C9.19959 7.03354 8.9375 6.16901 8.9375 5.28461C8.93879 4.09907 9.41002 2.96245 10.2478 2.12414C11.0856 1.28584 12.2215 0.81431 13.4062 0.813019ZM25.5938 12.0326H22.3438C22.0688 12.0332 21.8022 12.1268 21.5872 12.2982C21.3721 12.4695 21.2213 12.7086 21.1591 12.9766L16.5904 11.5733C16.0015 11.3936 15.3703 11.409 14.7907 11.6172L14.1107 11.8611L10.9233 11.1611C10.25 11.0129 9.54854 11.0586 8.90012 11.2928L4.77994 12.779C4.68685 12.5577 4.53056 12.3689 4.33067 12.2361C4.13078 12.1033 3.89617 12.0326 3.65625 12.0326H0.40625C0.298506 12.0326 0.195175 12.0755 0.118988 12.1517C0.0428012 12.2279 0 12.3313 0 12.4392V20.5693C0 20.6771 0.0428012 20.7805 0.118988 20.8568C0.195175 20.933 0.298506 20.9758 0.40625 20.9758H3.65625C3.85682 20.9756 4.05423 20.9258 4.23097 20.8309C4.40771 20.7361 4.55832 20.599 4.66944 20.4319C6.17223 22.3385 8.08146 23.8854 10.2578 24.9596L12.0112 25.823C12.2776 25.9555 12.5742 26.0154 12.871 25.9966C13.1679 25.9779 13.4547 25.8813 13.7023 25.7164C13.95 25.5516 14.15 25.3244 14.282 25.0576C14.414 24.7909 14.4735 24.494 14.4544 24.197C14.5644 24.2254 14.6772 24.2421 14.7907 24.2466C14.9021 24.2464 15.0132 24.235 15.1222 24.2124C15.478 24.1401 15.7989 23.9498 16.0331 23.6723C16.2672 23.3947 16.4009 23.0462 16.4125 22.6832C16.6435 22.8132 16.9031 22.8838 17.1681 22.8889C17.2792 22.8887 17.39 22.8772 17.4988 22.8547C17.8776 22.7777 18.2161 22.5674 18.453 22.2618C18.69 21.9563 18.8095 21.5759 18.7899 21.1896C19.1044 21.268 19.4357 21.2435 19.7353 21.1197C20.0349 20.996 20.287 20.7794 20.4547 20.5018C20.5767 20.3174 20.6597 20.1099 20.6984 19.8921H21.1388C21.1721 20.1891 21.3131 20.4635 21.5353 20.6633C21.7574 20.8631 22.0451 20.9743 22.3438 20.9758H25.5938C25.7015 20.9758 25.8048 20.933 25.881 20.8568C25.9572 20.7805 26 20.6771 26 20.5693V12.4392C26 12.3313 25.9572 12.2279 25.881 12.1517C25.8048 12.0755 25.7015 12.0326 25.5938 12.0326ZM4.0625 19.7563C4.0625 19.8641 4.0197 19.9675 3.94351 20.0437C3.86733 20.12 3.76399 20.1628 3.65625 20.1628H0.8125V12.8457H3.65625C3.76399 12.8457 3.86733 12.8885 3.94351 12.9647C4.0197 13.041 4.0625 13.1444 4.0625 13.2522V19.7563ZM19.7771 20.0579C19.7184 20.1471 19.6428 20.2239 19.5545 20.2839C19.4662 20.3438 19.367 20.3858 19.2625 20.4074C19.158 20.429 19.0503 20.4298 18.9455 20.4097C18.8407 20.3896 18.7409 20.3491 18.6517 20.2905L14.8793 17.8051L14.7054 18.0693C14.6788 18.0872 14.656 18.1103 14.6383 18.137C14.6206 18.1638 14.6083 18.1939 14.6022 18.2254L14.4324 18.4839L14.7436 18.6888C14.7477 18.6888 14.7501 18.6961 14.7542 18.6994L17.6182 20.5872C17.7943 20.7075 17.916 20.8921 17.9573 21.1014C17.9985 21.3107 17.9559 21.5278 17.8387 21.7059C17.7214 21.884 17.5389 22.0089 17.3305 22.0536C17.1221 22.0983 16.9044 22.0593 16.7245 21.9449L15.6991 21.2693L15.6877 21.2604L13.195 19.6181H13.1885L12.9521 19.462C12.8621 19.4048 12.7533 19.3853 12.6491 19.4077C12.5449 19.43 12.4536 19.4925 12.395 19.5815C12.3364 19.6706 12.3151 19.7791 12.3357 19.8838C12.3563 19.9884 12.4172 20.0807 12.5052 20.1409L15.2457 21.9466C15.3777 22.0361 15.4804 22.1624 15.5411 22.3099C15.6018 22.4573 15.6178 22.6194 15.5871 22.7759C15.5565 22.9324 15.4805 23.0764 15.3686 23.19C15.2568 23.3036 15.114 23.3818 14.9581 23.4149C14.7472 23.458 14.5277 23.4156 14.3479 23.297L11.5968 21.484C11.5523 21.4535 11.5021 21.4323 11.4493 21.4215C11.3965 21.4106 11.3421 21.4104 11.2892 21.4209C11.2363 21.4313 11.186 21.4522 11.1412 21.4822C11.0965 21.5123 11.0581 21.551 11.0285 21.5961C10.9988 21.6411 10.9784 21.6916 10.9685 21.7447C10.9585 21.7977 10.9592 21.8522 10.9705 21.9049C10.9818 21.9577 11.0035 22.0076 11.0343 22.0519C11.0651 22.0962 11.1044 22.1339 11.1499 22.1628L11.2929 22.2571C11.297 22.2571 11.2994 22.2653 11.3043 22.2685L13.2543 23.5523C13.4536 23.6719 13.5981 23.8648 13.657 24.0898C13.7158 24.3147 13.6843 24.5538 13.5691 24.7558C13.454 24.9577 13.2643 25.1065 13.0409 25.1703C12.8174 25.2341 12.5779 25.2078 12.3736 25.097L10.6161 24.2279C8.33044 23.0993 6.35842 21.4238 4.875 19.3498V13.6083L9.17475 12.0587C9.67928 11.8771 10.2248 11.8416 10.7486 11.9562L12.6766 12.3798L11.2824 12.8831C10.8541 13.0298 10.5016 13.3408 10.3025 13.7476C10.1033 14.1543 10.0738 14.6236 10.2204 15.0522C10.3671 15.4807 10.6778 15.8335 11.0844 16.0327C11.4909 16.232 11.9599 16.2615 12.3882 16.1148L14.3195 15.488L19.5455 18.9311C19.6422 18.995 19.7241 19.0788 19.7858 19.1769C19.8474 19.2751 19.8874 19.3853 19.903 19.5002C19.9037 19.5201 19.9056 19.5399 19.9087 19.5596C19.9202 19.7353 19.874 19.9109 19.7771 20.0579ZM21.125 19.0815H20.6375C20.5215 18.7409 20.295 18.449 19.994 18.2522L14.6055 14.701C14.5546 14.6675 14.4969 14.6458 14.4366 14.6377C14.3763 14.6295 14.3149 14.635 14.2569 14.6538L12.1396 15.3416C11.9752 15.3952 11.7988 15.3999 11.6318 15.3551C11.4648 15.3104 11.3144 15.2182 11.1987 15.0896C11.1002 14.9806 11.0301 14.8491 10.9945 14.7066C10.9589 14.5641 10.959 14.415 10.9946 14.2725C11.0303 14.13 11.1005 13.9985 11.199 13.8896C11.2975 13.7807 11.4213 13.6978 11.5594 13.6481L15.0686 12.3814C15.4825 12.2326 15.9334 12.2218 16.354 12.3505L21.125 13.8172V19.0815ZM25.1875 20.1628H22.3438C22.236 20.1628 22.1327 20.12 22.0565 20.0437C21.9803 19.9675 21.9375 19.8641 21.9375 19.7563V13.2522C21.9375 13.1444 21.9803 13.041 22.0565 12.9647C22.1327 12.8885 22.236 12.8457 22.3438 12.8457H25.1875V20.1628Z" fill="#EE2737"/>
</g>
<defs>
<clipPath id="clip0_154_4">
<rect width="26" height="26" fill="white"/>
</clipPath>
</defs>
</svg>
