<svg width="21" height="30" viewBox="0 0 21 30" fill="none" xmlns="http://www.w3.org/2000/svg">
<g clip-path="url(#clip0_154_6)">
<path d="M14.9066 1.25139C15.0165 1.37472 15.0993 1.53547 15.2392 1.61585C16.0536 2.08563 16.2673 2.59698 15.7751 3.40074C15.3943 4.02296 15.2724 4.49412 16.1589 4.87521C15.3025 5.37825 15.0827 5.96998 15.3431 6.83056C15.602 7.68836 15.3025 8.50736 14.6447 9.02564C15.0014 9.4095 15.4831 9.71576 15.614 10.119C15.8383 10.8078 15.5523 11.0988 14.7651 11.1625C14.1359 11.2138 13.856 11.4258 13.6874 12.0397C13.4947 12.7382 13.29 13.2966 13.9162 13.9216C14.294 14.2986 13.8424 14.8487 13.1455 14.8002C12.5615 14.7586 12.4005 15.0095 12.4396 15.4197C12.4983 16.0294 12.56 16.6585 12.7692 17.2336C13.0703 18.0554 13.3472 18.1095 14.2669 17.9362C14.4821 17.8961 14.7546 18.1122 14.9999 18.212C14.872 18.4213 14.7877 18.6776 14.601 18.8259C14.452 18.9451 14.1751 18.9201 13.9613 18.9811C13.3126 19.1696 13.15 19.5715 13.4767 20.2505C13.6257 20.1881 13.8153 20.1604 13.9162 20.0579C14.3196 19.6518 14.7049 19.7114 15.1715 19.9789C15.7736 20.3239 16.3456 20.4043 16.8724 19.771C17.2005 19.3761 17.7093 19.5687 18.072 20.0703C18.2873 20.3669 18.6289 20.5845 18.9029 20.8464C19.0323 20.9697 19.1558 21.1055 19.2476 21.2538C19.368 21.4506 19.4116 21.6959 19.5622 21.8636C19.809 22.1421 20.2455 22.368 19.8241 22.7699C19.3213 23.2493 19.0745 24.1044 18.06 23.8965C16.9311 23.6651 16.1664 24.1349 15.9557 25.2144C15.9286 25.3488 15.9497 25.5179 15.8684 25.6135C15.459 26.0902 15.0315 26.542 16.0912 26.7928C16.1213 26.7997 16.1092 27.3429 16.0039 27.3817C15.2904 27.6492 14.5544 27.8806 13.8093 28.0594C13.3246 28.1758 12.7632 28.0442 12.5118 28.6594C12.4697 28.762 11.8345 28.7939 11.5892 28.6678C10.4001 28.0608 9.24256 27.397 8.08808 26.7332C7.62448 26.4671 7.09315 26.2232 6.76954 25.8421C6.0049 24.9414 5.08372 24.2623 4.07374 23.6069C3.6568 23.3366 3.69443 22.4678 3.53187 21.8705C3.24889 20.8339 3.03064 19.7779 2.67391 18.7636C2.27202 17.6203 1.74972 16.5144 1.25 15.3213C1.87164 15.015 1.81294 14.3429 1.78284 13.6777C1.74671 12.8532 1.72715 12.0674 2.33374 11.3288C2.74164 10.8327 2.75218 10.18 2.39846 9.56332C1.98152 8.83717 2.16666 8.62099 3.02161 8.40342C3.47768 8.28702 3.88258 7.96967 4.27995 7.7036C4.71043 7.41536 5.08824 7.24906 5.69332 7.29341C6.33453 7.34052 7.01488 7.04397 7.66061 6.84996C7.75393 6.82224 7.79306 6.52846 7.78704 6.35939C7.7735 6.00047 7.71178 5.64294 7.66512 5.24245C8.50653 5.36024 9.25461 5.4905 10.0087 5.55979C10.5385 5.60829 11.0383 5.62769 10.9826 4.84195C10.9525 4.40405 11.2655 4.0091 11.9188 3.97584C12.6774 3.93704 12.9273 3.32313 13.2268 2.79654C13.3246 2.6247 13.4119 2.43485 13.5549 2.29904C13.9388 1.93596 14.3512 1.59783 14.7516 1.25C14.8012 1.25 14.8509 1.25 14.9021 1.25L14.9066 1.25139Z" stroke="#EE2737" stroke-miterlimit="10"/>
</g>
<defs>
<clipPath id="clip0_154_6">
<rect width="21" height="30" fill="white"/>
</clipPath>
</defs>
</svg>
